<svg width="225" height="174" viewBox="0 0 225 174" fill="none" xmlns="http://www.w3.org/2000/svg">
<path d="M132.779 116.5V112.4V83.9944C132.779 72.2807 152.822 72.2807 162.843 73.7449C163.816 65.0572 166.58 47.4476 169.849 46.5104C207.795 39.775 209.404 58.8099 208.087 69.645C202.249 117.671 189.697 116.5 184.152 116.5H132.779Z" fill="#E05357"/>
<rect width="5.376" height="49.056" transform="matrix(-1 0 0 1 164.867 114.654)" fill="#191353"/>
<path d="M164.867 163.71H159.491L164.867 114.654V163.71Z" fill="#2C249B"/>
<path d="M164.797 163.71H159.521C158.055 165.194 154.244 166.382 149.847 166.975C145.157 167.608 141.347 167.569 141.347 172.614H183.851C183.851 167.569 181.505 167.569 174.763 166.975C169.37 166.5 165.872 164.601 164.797 163.71Z" fill="#2C249B"/>
<path d="M86.2804 157.896C91.8245 158.232 92.2445 148.488 92.2445 148.488L106.69 151.282C106.69 151.282 103.952 156.225 102.321 161.209C101.431 163.926 100.582 169.224 99.3787 170.788C96.6961 173.94 80.0792 164.516 86.2804 157.896Z" fill="#F1B09B"/>
<path d="M106.69 151.282C106.69 151.282 103.952 156.225 102.32 161.209C101.431 163.926 100.582 169.224 99.3785 170.788C99.0809 170.81 98.7742 170.819 98.4603 170.816C101.568 167.523 100.644 162.516 101.316 161.209C101.988 159.903 106.104 152.388 103.332 152.604C101.115 152.777 94.8265 151.5 91.9597 150.84C92.2011 149.49 92.2443 148.488 92.2443 148.488L106.69 151.282Z" fill="#EC8E65"/>
<path d="M70.2593 157.947C73.2511 158.438 80.4001 157.476 86.8673 157.875C88.3631 160.234 87.0969 163.106 87.2744 164.702C87.4518 166.297 87.5904 167.168 93.4096 169.312C99.2289 171.456 98.8581 170.763 99.3932 170.821C99.9284 170.879 99.3128 172.738 98.9453 172.603C98.5777 172.468 73.1807 163.614 70.6918 162.627C68.2029 161.641 67.8511 157.686 70.2593 157.947Z" fill="#0F2E9A"/>
<path d="M146.053 27.9722C146.807 32.6877 144.56 34.181 143.343 34.3381C141.835 45.3725 152.219 46.402 157.599 45.5375C159.131 41.8044 161.723 33.9609 159.838 32.4519C157.953 30.943 155.675 27.2648 154.771 25.6144C153.357 25.8895 149.634 26.7461 146.053 27.9722Z" fill="#F1B09B"/>
<path d="M154.771 25.6144C153.358 25.8895 149.634 26.7461 146.053 27.9721C146.629 31.5744 145.454 33.2962 144.324 33.9786C148.826 35.779 153.165 29.1526 154.771 25.6144Z" fill="#EC8E65"/>
<path d="M117.36 162.768C122.736 161.256 120.301 152.64 120.301 152.64L133.766 149.934C133.766 149.934 132.586 155.58 133.412 160.638C133.873 163.458 134.239 168.871 133.648 170.753C132.228 174.192 112.012 171.567 117.36 162.768Z" fill="#F1B09B"/>
<path d="M133.766 149.934C133.766 149.934 132.586 155.58 133.412 160.638C133.873 163.458 134.239 168.871 133.648 170.753C133.536 171.024 133.308 171.257 132.984 171.453C133.572 169.134 133.766 163.578 132.984 162.18C132.202 160.782 132.648 153.948 131.892 154.032C131.287 154.099 124.275 155.628 120.845 156.384C120.785 154.352 120.301 152.64 120.301 152.64L133.766 149.934Z" fill="#EC8E65"/>
<path d="M101.806 168.332C104.783 167.756 112.345 164.118 117.546 162.702C119.766 164.404 119.57 167.545 120.289 168.984C121.007 170.424 121.334 171.407 127.537 171.407C133.74 171.407 133.152 170.884 133.675 170.753C134.197 170.622 134.263 172.585 133.871 172.585C133.479 172.585 106.507 172.651 103.83 172.585C101.153 172.52 99.4548 168.921 101.806 168.332Z" fill="#0F2E9A"/>
<path d="M142.322 79.9209L142.685 79.8784L179.651 82.7429C158.594 86.9853 117.514 96.1772 116.571 99.0054C115.393 102.541 110.678 139.834 111.503 151.147C101.014 151.855 89.4923 149.615 86.0746 146.434C90.386 132.952 91.488 86.7906 107.428 84.3927C119.033 82.647 134.175 80.8746 142.322 79.9209Z" fill="#F4BD34"/>
<path d="M86.509 144.96C91.404 148.404 103.315 150.874 109.296 149.328C110.136 149.328 110.388 119.256 113.916 97.584C113.916 96.1056 152.164 86.6419 171.288 82.0948" stroke="#61948B" stroke-width="0.504"/>
<path d="M116.571 99.0053C115.393 102.541 110.679 139.834 111.503 151.147C108.485 151.351 105.38 151.31 102.408 151.073C104.416 135.036 107.849 108.672 109.968 97.0799C112.087 85.488 128.448 85.992 157.68 81.0403L179.651 82.7428C158.594 86.9852 117.514 96.1771 116.571 99.0053Z" fill="#D79B16"/>
<path d="M137.651 14.5474C138.968 22.5318 143.51 37.1681 151.676 29.5116C164.45 17.5344 148.871 3.00045 137.651 14.5474Z" fill="#F1B09B"/>
<path d="M139.016 20.556C138.398 18.4363 137.944 16.3267 137.651 14.5474C147.807 4.09509 161.535 15.0132 154.572 26.0608C153.144 23.1655 154.992 21.9 155.58 19.968C156.168 18.036 154.152 16.356 153.396 17.448C152.64 18.54 154.404 21.312 153.396 21.312C150.036 21.564 149.952 16.524 148.02 17.784C143.988 20.7408 140.337 20.864 139.016 20.556Z" fill="#EC8E65"/>
<path d="M175.138 115.129C192.764 109.854 187.655 92.3666 182.981 84.2822C180.704 83.6542 173.04 82.3984 159.938 82.3984C118.818 85.9304 113.088 90.1689 111.439 99.3522C109.789 108.535 104.723 149.978 104.723 155.982C111.312 157.812 128.952 151.744 135.095 151.744C136.038 144.021 134.806 122.938 132.881 113.363C144.938 115.364 165.156 116.736 175.138 115.129Z" fill="#F4BD34"/>
<path d="M104.795 154.2C111.564 155.796 127.272 149.58 133.236 150.252C134.655 150.412 132.312 119.172 130.884 112.2C130.505 110.352 180.444 119.928 181.2 85.404" stroke="#61948B" stroke-width="0.504"/>
<path d="M126.18 104.22C127.793 108.991 131.319 112.303 132.881 113.363C132.992 113.915 133.101 114.505 133.207 115.129C130.865 112.864 126.18 107.513 126.18 104.22Z" fill="#D79B16"/>
<path d="M182.88 84.312C180.602 83.6841 173.04 82.3984 159.938 82.3984C158.736 82.5017 157.563 82.6056 156.42 82.7102C165.912 84.2821 182.292 89.184 184.395 86.664C183.988 85.805 183.298 85.0358 182.88 84.312Z" fill="#D79B16"/>
<path d="M102.571 67.234C105.08 68.6178 107.944 68.8202 109.128 68.6336V74.232H93.5541C91.3683 68.6336 99.0186 65.2756 102.571 67.234Z" fill="#F9DB97"/>
<path d="M126.636 62.8772C128.901 47.8333 135.723 39.0343 139.536 36.096C141.855 47.5749 141.251 68.6054 140.695 73.6749C140.591 74.6255 138.709 73.9045 106.907 73.9045V63.4649C112.92 62.4071 126.466 64.0111 126.636 62.8772Z" fill="#12AAE4"/>
<path d="M139.498 36.1415C140.438 35.1046 142.545 34.5284 143.484 34.332C143.875 37.9062 147.012 43.5472 151.087 42.8929C154.656 42.3199 159.211 36.8809 159.78 32.3999C162.316 32.1171 167.327 33.51 168.971 34.2563C168.971 34.2563 179.014 71.2093 183.178 84.6965C179.33 88.822 155.275 79.5396 139.498 80.3369C140.712 59.616 137.52 49.704 139.498 36.1415Z" fill="#12AAE4"/>
<path d="M139.498 80.3368C155.274 79.5396 179.33 88.822 183.178 84.6965" stroke="white" stroke-width="0.336"/>
<path d="M142.392 34.6119C143.093 38.105 145.332 45.1194 151.087 44.1601C157.68 43.061 159.948 36.9583 160.872 32.3692" stroke="white" stroke-width="0.336"/>
<path d="M140.46 61.128C140.46 59.9856 139.451 47.66 138.947 41.64C138.353 52.1704 140.345 61.5988 139.622 77.928C140.042 77.424 140.46 76.3274 140.46 75.576V61.128Z" fill="#0F8DC2"/>
<path d="M164.064 51.3C159.36 40.548 165.375 35.4575 168.971 34.2562C168.971 34.2562 175.236 57.3087 179.921 73.644H142.812C142.728 73.224 142.56 72.2664 142.56 71.796C142.98 65.244 151.296 63.816 153.312 65.076C155.328 66.336 158.688 67.176 158.688 66.924C158.688 66.672 157.932 64.572 158.688 63.9C160.284 62.64 169.608 63.06 168.971 61.8C168.333 60.54 168.012 60.036 164.064 51.3Z" fill="#0F8DC2"/>
<g filter="url(#filter0_d_4_1566)">
<path d="M154.08 65.822C157.065 67.4517 160.472 67.6902 161.88 67.4704V74.064H143.355C140.755 67.4704 149.855 63.5153 154.08 65.822Z" fill="#F9DB97"/>
</g>
<path d="M154.08 65.822C157.065 67.4517 160.472 67.6902 161.88 67.4704V74.064H159.948C159.528 72.244 158.688 68.5536 158.688 68.352C158.688 68.1 156.276 67.9837 154.08 66.588C151.884 65.1923 142.219 64.908 143.355 74.064C140.755 67.4704 149.855 63.5153 154.08 65.822Z" fill="#FFC86B"/>
<path d="M190.571 72.1C188.588 52.0136 173.42 35.8309 168.936 34.248C153.355 40.9358 174.4 62.4216 171.803 63.2429C169.725 63.8999 162.281 63.949 158.819 65.4742C159.133 66.6866 159.854 70.2157 160.704 74.064C187.938 74.064 190.571 75.1505 190.571 72.1Z" fill="#12AAE4"/>
<path d="M160.704 64.8578L162.636 74.0658" stroke="white" stroke-width="0.336"/>
<path d="M134.995 16.679C133.539 10.2224 138.483 8.68953 141.376 8.76945C142.211 6.6231 145.437 4.25481 147.559 4.43277C152.572 4.85339 154.21 8.57321 154.76 10.2225C161.357 13.518 158.121 20.0529 156.773 21.7967C156.672 22.1688 155.992 25.5123 155.58 27.024C154.74 25.932 154.59 24.9815 154.396 24.229C154.152 23.2883 155.304 22.7276 156.032 20.0529C156.761 17.3782 154.181 16.301 153.082 17.1259C151.983 17.9509 154.046 21.3856 152.883 21.0689C149.722 19.8333 150.491 15.1713 146.962 17.5828C141.897 21.0428 135.955 20.9376 134.995 16.679Z" fill="#1A1454"/>
<path d="M146.962 17.583C141.897 21.0429 135.955 20.9378 134.995 16.6792C134.458 14.2988 134.791 12.5877 135.57 11.3799C134.971 18.8637 142.915 18.6335 146.962 17.583Z" fill="#030215"/>
<path d="M133.404 116.484L132.984 113.796C171.824 113.796 169.865 110.814 171.618 105.317C176.875 88.836 181.838 82.6559 194.104 80.89C200.646 79.9482 205.45 78.1432 207.035 77.3584C200.841 117.544 189.4 116.5 184.175 116.5C179.737 116.5 165.277 116.484 133.404 116.484Z" fill="#D23040"/>
<path d="M124.547 72.0479H149.411V74.1663H124.547V72.0479Z" fill="#1C43AE"/>
<path d="M124.584 73.392H149.448V74.232H124.584V73.392Z" fill="#08299A"/>
<path d="M124.584 72.0479H149.448V72.7199H124.584V72.0479Z" fill="#0F2E9A"/>
<path d="M85.2593 45.5975C85.1594 45.0793 85.5564 44.5984 86.0841 44.5984H123.19C123.592 44.5984 123.938 44.884 124.014 45.2793L129.394 73.1673C129.494 73.6855 129.097 74.1664 128.569 74.1664H91.4637C91.0611 74.1664 90.7151 73.8808 90.6389 73.4855L85.2593 45.5975Z" fill="#1C43AE"/>
<path d="M91.0899 74.1663H129.118C129.361 74.1663 129.544 73.9447 129.498 73.7058C129.463 73.5236 129.303 73.392 129.118 73.392H91.0899C90.8466 73.392 90.6636 73.6136 90.7097 73.8525C90.7448 74.0347 90.9043 74.1663 91.0899 74.1663Z" fill="#08299A"/>
<path d="M129.372 72.72L124.016 45.2774C123.939 44.883 123.593 44.5983 123.191 44.5983H122.4L127.944 72.72H129.372Z" fill="#0F2E9A"/>
<ellipse cx="105.282" cy="58.3156" rx="1.428" ry="2.436" transform="rotate(-10.1693 105.282 58.3156)" fill="#0F2E9A"/>
<path d="M156.84 74.064C156.211 71.8625 153.757 67.6575 148.976 68.4501C144.195 69.2426 142.266 72.5228 142.056 74.0639L156.84 74.064Z" fill="#1C43AE"/>
<path d="M156.84 74.064C156.211 71.8625 153.758 67.6575 148.976 68.4501C147.707 68.6605 146.639 69.0461 145.751 69.528C148.579 68.744 154.387 68.5536 154.992 74.064L156.84 74.064Z" fill="#0F2E9A"/>
<rect x="41.424" y="74.0883" width="170.482" height="3.78703" rx="1.89351" fill="#312E63"/>
<path d="M61.0136 76.0042H65.6449L47.0328 172.719H45.7919L61.0136 76.0042Z" fill="#312E63"/>
<path d="M192.24 75.9119H187.609L206.221 172.627H207.462L192.24 75.9119Z" fill="#312E63"/>
<rect x="41.2611" y="2.54915" width="45.6851" height="38.8691" fill="#FDF2D6" stroke="#AAB8FA" stroke-width="0.168"/>
<rect x="39.324" y="0.90001" width="49.56" height="42.168" stroke="#AAB8FA" stroke-width="0.168"/>
<path d="M55.4732 28.6141L41.5001 41.2276H86.7073L69.4464 23.3585L59.172 34.2201L55.4732 28.6141Z" fill="#84CDEB"/>
<ellipse cx="52.6408" cy="17.0358" rx="5.65091" ry="4.94836" fill="#84CDEB"/>
<path d="M67.2532 65.8791C65.933 64.077 63.4714 59.4338 64.1869 55.2783C64.7614 51.9413 64.8801 50.5229 64.8604 50.0571C64.8483 49.9922 64.8367 49.9304 64.8256 49.8719C64.8424 49.8859 64.8555 49.9428 64.8604 50.0571C65.1247 51.4827 65.5922 54.3981 65.5922 56.0204C65.5922 58.1405 67.8919 61.7448 68.5308 65.8791H67.2532Z" fill="#0D8BC9"/>
<path d="M63.4199 62.4869C64.6464 63.4198 65.4641 65.1371 65.7196 65.8791H66.8695C66.7417 64.7131 65.3363 61.9569 64.0587 61.3208C63.0366 60.812 61.9293 59.342 61.5034 58.6706C61.6312 59.554 62.1933 61.554 63.4199 62.4869Z" fill="#0D8BC9"/>
<path d="M66.3585 55.0665C65.7452 57.8651 66.614 63.5118 67.1251 65.9853H68.4024C69.2968 62.4871 68.1469 57.9287 68.1469 55.9146C68.1469 54.3033 67.2951 51.7096 66.8692 50.6142C66.9545 50.9322 66.9718 52.2679 66.3585 55.0665Z" fill="#0379C3"/>
<path d="M63.5477 60.2607C65.3875 61.872 66.5288 64.6777 66.8695 65.8791H68.0194C68.2749 64.289 66.614 60.6848 64.8253 59.4127C63.3944 58.395 61.8442 55.7377 61.2479 54.5363C61.2479 55.7731 61.7079 58.6494 63.5477 60.2607Z" fill="#0379C3"/>
<path d="M69.297 60.5787C67.866 62.1052 67.7638 64.4656 67.8916 65.455H68.4022C68.6577 64.395 70.3186 62.0628 71.4685 60.3667C72.6184 58.6705 72.4906 55.3843 72.4906 53.2642C72.4906 54.9603 71.0857 58.6705 69.297 60.5787Z" fill="#0379C3"/>
<path d="M67.6365 58.4585C66.2055 60.4939 66.7847 64.1829 67.2532 65.7731H68.2749C68.2749 64.713 68.5304 61.9356 69.5525 59.3066C70.8301 56.0204 70.7024 53.1582 70.4468 50.826C70.5746 51.8861 69.4252 55.9144 67.6365 58.4585Z" fill="#0D8BC9"/>
<path d="M72.2356 61.4268C70.9068 62.4444 69.6377 64.607 69.1693 65.5611H68.0194C67.8916 65.243 69.9358 61.6388 71.2135 60.5787C72.4911 59.5186 73.7688 56.7624 74.2798 55.2783C74.5353 56.4444 74.1733 59.9427 72.2356 61.4268Z" fill="#0D8BC9"/>
<path d="M72.7466 65.137H62.0144L63.6753 74.0416H70.9579L72.7466 65.137Z" fill="#F4BD34"/>
<path d="M62.2225 66.252H70.958L69.48 74.0416M62.3792 67.092H69.9L68.64 74.0416" stroke="#D79B16" stroke-width="0.168"/>
<path d="M3.95996 172.68H224.04" stroke="#191353" stroke-width="0.168"/>
<path d="M11.604 101.364C8.72001 98.48 3.18721 90.2592 4.12801 80.448C6.05998 83.388 11.604 93.972 11.604 101.364Z" fill="#2DC9ED"/>
<path d="M17.4 114.048C17.4 108 18.2904 95.2992 21.852 92.88C22.02 96.744 24.372 104.22 17.4 114.048Z" fill="#2DC9ED"/>
<path d="M22.8602 122.028C22.3562 117.856 22.7258 107.748 28.2362 100.692C29.0761 103.128 31.6803 112.536 22.8602 122.028Z" fill="#2DC9ED"/>
<path d="M25.548 129C26.164 125.276 29.1432 116.064 36.132 109.008C36.132 112.116 33.864 126.9 25.548 129Z" fill="#2DC9ED"/>
<path d="M22.776 122.028C18.996 119.172 9.40317 113.645 1.27197 114.384C4.88397 117.744 9.41997 122.616 22.776 122.028Z" fill="#2DC9ED"/>
<path d="M25.548 129.168C22.776 127.096 14.4432 123.506 3.28796 125.724C9.25196 128.664 17.148 133.2 25.548 129.168Z" fill="#2DC9ED"/>
<path d="M17.4 114.132C12.276 112.144 1.64161 106.79 0.0960083 101.28C4.21201 102.12 9.42001 103.884 17.4 114.132Z" fill="#2DC9ED"/>
<path d="M38.2321 112.872C38.2041 110.128 38.8873 104.086 41.8441 101.868C42.348 104.388 41.3403 110.52 38.2321 112.872Z" fill="#2DC9ED"/>
<path d="M37.98 113.124C38.512 111.5 40.6344 108.168 44.868 107.832C43.44 110.94 41.844 112.368 37.98 113.124Z" fill="#2DC9ED"/>
<path d="M36.3839 133.452V133.536C38.2319 128.664 37.392 123.204 36.5519 121.02C34.0655 126.127 35.4039 131.436 36.3839 133.452Z" fill="#2DC9ED"/>
<path d="M36.72 133.452C37.784 132.5 41.592 130.932 48.312 132.276C46.632 133.452 41.676 135.804 36.72 133.452Z" fill="#2DC9ED"/>
<path d="M39.66 129.168C39.492 126.536 39.9456 120.634 43.104 118.08C43.44 120.516 43.0199 123.708 39.66 129.168Z" fill="#2DC9ED"/>
<path d="M40.08 129.168C42.544 128.216 48.2112 126.564 51.168 127.572C49.404 128.664 46.296 131.184 40.08 129.168Z" fill="#2DC9ED"/>
<path d="M44.784 123.708C46.044 121.636 49.74 117.24 54.444 116.232C52.932 118.248 49.236 122.868 44.784 123.708Z" fill="#2DC9ED"/>
<path d="M33.36 136.224C35.964 135.916 42.0288 135.804 45.456 137.82C43.776 138.576 36.468 139.92 33.36 136.224Z" fill="#2DC9ED"/>
<path d="M33.3598 136.224C31.9038 135.272 29.4286 131.554 31.1758 124.296C32.604 127.152 34.5356 131.688 33.3598 136.224Z" fill="#2DC9ED"/>
<path d="M26.052 141.18C28.432 137.148 33.4944 127.32 34.704 120.264C35.8464 115.963 37.644 113.376 38.4 112.62" stroke="#12AAE4" stroke-width="0.336"/>
<path d="M27.648 141.264C27.592 135.944 25.5312 123.137 17.736 114.468C10.596 106.992 12.948 101.868 10.512 98.172" stroke="#12AAE4" stroke-width="0.336"/>
<path d="M27.228 139.5C29.972 138.604 36.384 135.216 40.08 128.832C42.9024 124.464 46.52 122.196 47.976 121.608" stroke="#12AAE4" stroke-width="0.336"/>
<path d="M33.5281 136.308C33.6121 136.308 41.9281 138.24 45.4561 137.82" stroke="#12AAE4" stroke-width="0.168"/>
<path d="M36.8881 133.368C37.2241 133.452 43.9441 133.704 48.2281 132.276" stroke="#12AAE4" stroke-width="0.168"/>
<path d="M40.248 129.168C43.188 128.944 49.488 128.311 51.168 127.572" stroke="#12AAE4" stroke-width="0.168"/>
<path d="M44.952 123.624C46.24 122.616 49.908 119.743 54.276 116.316" stroke="#12AAE4" stroke-width="0.168"/>
<path d="M39.744 129.084C40.388 126.172 41.9448 119.911 43.02 118.164" stroke="#12AAE4" stroke-width="0.168"/>
<path d="M36.3838 133.284C36.1878 129.868 35.947 122.65 36.5518 121.104" stroke="#12AAE4" stroke-width="0.168"/>
<path d="M33.3602 136.14C32.5482 133.032 30.9578 126.312 31.0922 124.296" stroke="#12AAE4" stroke-width="0.168"/>
<path d="M25.6321 129C28.7121 124.324 35.1241 113.796 36.1321 109.092" stroke="#12AAE4" stroke-width="0.168"/>
<path d="M22.86 121.944C24.512 118.5 27.8832 109.445 28.152 100.776" stroke="#12AAE4" stroke-width="0.168"/>
<path d="M17.4841 113.964C18.4921 108.644 20.7937 96.9792 21.9361 92.88" stroke="#12AAE4" stroke-width="0.168"/>
<path d="M11.6877 101.196C8.88775 95.596 3.47255 83.6232 4.21175 80.532" stroke="#12AAE4" stroke-width="0.168"/>
<path d="M17.2321 113.88C12.3881 110.464 2.19605 103.178 0.180054 101.364" stroke="#12AAE4" stroke-width="0.168"/>
<path d="M22.776 121.86C17.68 120.264 6.24483 116.534 1.27203 114.384" stroke="#12AAE4" stroke-width="0.168"/>
<path d="M25.548 129.084C20.004 128.944 7.79043 128.076 3.28802 125.724" stroke="#12AAE4" stroke-width="0.168"/>
<path d="M38.4001 112.536C39.2681 109.512 41.1721 103.178 41.8441 102.036" stroke="#12AAE4" stroke-width="0.168"/>
<path d="M38.064 112.956C39.996 111.472 44.0448 108.386 44.784 107.916" stroke="#12AAE4" stroke-width="0.168"/>
<path d="M40.584 139.416H15.2267C15.0223 143.938 17.7017 158.736 27.5932 158.736C37.4847 158.736 40.1029 145.376 40.584 139.416Z" fill="#1C43AE"/>
<path d="M35.292 139.416C34.872 144.152 32.1 154.53 24.372 158.154M33.78 139.416C32.828 144.514 29.244 155.204 22.524 157.184" stroke="#0F2E9A" stroke-width="0.168"/>
<path d="M27.648 158.736C37.4977 158.736 40.1049 145.376 40.584 139.416H37.5103C37.7114 143.595 36.0206 153.31 27.648 158.736Z" fill="#0F2E9A"/>
<path d="M44.112 172.68L41.0294 151.092M11.184 172.68L14.2666 151.092M14.6984 148.068L14.9706 146.162C15.0415 145.665 15.4669 145.296 15.9685 145.296H39.3275C39.8292 145.296 40.2545 145.665 40.3254 146.162L40.5976 148.068M14.6984 148.068H40.5976M14.6984 148.068L14.2666 151.092M40.5976 148.068L41.0294 151.092M14.2666 151.092H41.0294" stroke="#2F2C63" stroke-width="0.504"/>
<defs>
<filter id="filter0_d_4_1566" x="142.224" y="65.16" width="20.328" height="10.248" filterUnits="userSpaceOnUse" color-interpolation-filters="sRGB">
<feFlood flood-opacity="0" result="BackgroundImageFix"/>
<feColorMatrix in="SourceAlpha" type="matrix" values="0 0 0 0 0 0 0 0 0 0 0 0 0 0 0 0 0 0 127 0" result="hardAlpha"/>
<feOffset dy="0.672"/>
<feGaussianBlur stdDeviation="0.336"/>
<feComposite in2="hardAlpha" operator="out"/>
<feColorMatrix type="matrix" values="0 0 0 0 0 0 0 0 0 0 0 0 0 0 0 0 0 0 0.25 0"/>
<feBlend mode="normal" in2="BackgroundImageFix" result="effect1_dropShadow_4_1566"/>
<feBlend mode="normal" in="SourceGraphic" in2="effect1_dropShadow_4_1566" result="shape"/>
</filter>
</defs>
</svg>
